<svg width="593" height="85" viewBox="0 0 593 85" fill="none" xmlns="http://www.w3.org/2000/svg">
<path d="M42.38 68H32.695L29.705 57.925C29.0983 55.845 28.4917 54.2417 27.885 53.115C27.2783 51.945 26.455 51.0567 25.415 50.45C24.375 49.8433 22.9883 49.54 21.255 49.54H14.69V68H5.525V22.5H23.92C29.4667 22.5 33.5617 23.605 36.205 25.815C38.8483 27.9817 40.17 31.3833 40.17 36.02C40.17 39.01 39.3683 41.415 37.765 43.235C36.205 45.055 34.0383 46.225 31.265 46.745C33.475 47.4817 35.1433 48.76 36.27 50.58C37.3967 52.4 38.4367 54.87 39.39 57.99L42.38 68ZM24.18 42.39C26.1733 42.39 27.7983 41.87 29.055 40.83C30.355 39.7467 31.005 38.1433 31.005 36.02C31.005 33.8967 30.355 32.315 29.055 31.275C27.7983 30.1917 26.1733 29.65 24.18 29.65H14.69V42.39H24.18ZM63.9366 68C58.1733 68 54.035 66.7867 51.5216 64.36C49.0083 61.9333 47.7516 58.4233 47.7516 53.83V36.67C47.7516 32.0767 49.0083 28.5667 51.5216 26.14C54.035 23.7133 58.1733 22.5 63.9366 22.5H79.1466V29.65H63.9366C61.5533 29.65 59.7766 30.2133 58.6066 31.34C57.48 32.4667 56.9166 34.2433 56.9166 36.67V41.675H76.2866V48.825H56.9166V53.83C56.9166 56.2133 57.48 57.99 58.6066 59.16C59.7766 60.2867 61.5533 60.85 63.9366 60.85H79.2766V68H63.9366ZM85.4674 36.67C85.4674 32.0767 86.724 28.5667 89.2374 26.14C91.7507 23.7133 95.8891 22.5 101.652 22.5H116.862V29.65H101.652C99.2691 29.65 97.4924 30.2133 96.3224 31.34C95.1957 32.4667 94.6324 34.2433 94.6324 36.67V42.975H114.002V50.125H94.6324V68H85.4674V36.67ZM139.025 68.78C133.002 68.78 128.387 67.3933 125.18 64.62C122.017 61.8033 120.435 57.665 120.435 52.205V38.295C120.435 32.835 122.017 28.7183 125.18 25.945C128.387 23.1283 133.002 21.72 139.025 21.72C145.049 21.72 149.642 23.1283 152.805 25.945C156.012 28.7183 157.615 32.835 157.615 38.295V52.205C157.615 57.665 156.012 61.8033 152.805 64.62C149.642 67.3933 145.049 68.78 139.025 68.78ZM139.025 61.63C142.059 61.63 144.377 60.8283 145.98 59.225C147.627 57.5783 148.45 55.2383 148.45 52.205V38.295C148.45 35.2617 147.627 32.9433 145.98 31.34C144.377 29.6933 142.059 28.87 139.025 28.87C135.992 28.87 133.652 29.6933 132.005 31.34C130.402 32.9433 129.6 35.2617 129.6 38.295V52.205C129.6 55.2383 130.402 57.5783 132.005 59.225C133.652 60.8283 135.992 61.63 139.025 61.63ZM203.547 68H193.862L190.872 57.925C190.265 55.845 189.659 54.2417 189.052 53.115C188.445 51.945 187.622 51.0567 186.582 50.45C185.542 49.8433 184.155 49.54 182.422 49.54H175.857V68H166.692V22.5H185.087C190.634 22.5 194.729 23.605 197.372 25.815C200.015 27.9817 201.337 31.3833 201.337 36.02C201.337 39.01 200.535 41.415 198.932 43.235C197.372 45.055 195.205 46.225 192.432 46.745C194.642 47.4817 196.31 48.76 197.437 50.58C198.564 52.4 199.604 54.87 200.557 57.99L203.547 68ZM185.347 42.39C187.34 42.39 188.965 41.87 190.222 40.83C191.522 39.7467 192.172 38.1433 192.172 36.02C192.172 33.8967 191.522 32.315 190.222 31.275C188.965 30.1917 187.34 29.65 185.347 29.65H175.857V42.39H185.347Z" fill="#3EBFAC"/>
<path d="M233.82 67.975C229.357 67.975 225.348 66.9783 221.795 64.985C218.285 62.9483 215.533 60.1317 213.54 56.535C211.547 52.9383 210.55 48.8433 210.55 44.25C210.55 39.6567 211.547 35.5617 213.54 31.965C215.533 28.3683 218.285 25.5733 221.795 23.58C225.348 21.5433 229.357 20.525 233.82 20.525C237.677 20.525 241.143 21.2833 244.22 22.8C247.297 24.2733 249.81 26.375 251.76 29.105C253.753 31.835 255.032 35.0417 255.595 38.725H254.295C253.732 35.3017 252.518 32.3333 250.655 29.82C248.835 27.2633 246.473 25.2917 243.57 23.905C240.71 22.5183 237.46 21.825 233.82 21.825C229.573 21.825 225.782 22.7783 222.445 24.685C219.108 26.5483 216.508 29.1917 214.645 32.615C212.782 35.995 211.85 39.8733 211.85 44.25C211.85 48.5833 212.782 52.4617 214.645 55.885C216.508 59.265 219.108 61.9083 222.445 63.815C225.782 65.7217 229.573 66.675 233.82 66.675C237.46 66.675 240.71 65.9817 243.57 64.595C246.473 63.2083 248.835 61.2583 250.655 58.745C252.518 56.1883 253.732 53.1983 254.295 49.775H255.595C255.032 53.4583 253.753 56.665 251.76 59.395C249.81 62.125 247.297 64.2483 244.22 65.765C241.143 67.2383 237.677 67.975 233.82 67.975ZM287.778 67.975C283.358 67.975 279.371 66.9567 275.818 64.92C272.265 62.84 269.47 60.0017 267.433 56.405C265.396 52.765 264.378 48.7133 264.378 44.25C264.378 39.7867 265.396 35.7567 267.433 32.16C269.47 28.52 272.265 25.6817 275.818 23.645C279.371 21.565 283.358 20.525 287.778 20.525C292.198 20.525 296.185 21.565 299.738 23.645C303.291 25.6817 306.086 28.52 308.123 32.16C310.16 35.7567 311.178 39.7867 311.178 44.25C311.178 48.7133 310.16 52.765 308.123 56.405C306.086 60.0017 303.291 62.84 299.738 64.92C296.185 66.9567 292.198 67.975 287.778 67.975ZM287.778 66.675C291.938 66.675 295.686 65.7 299.023 63.75C302.403 61.8 305.046 59.135 306.953 55.755C308.903 52.3317 309.878 48.4967 309.878 44.25C309.878 40.0033 308.903 36.19 306.953 32.81C305.046 29.3867 302.403 26.7 299.023 24.75C295.686 22.8 291.938 21.825 287.778 21.825C283.618 21.825 279.848 22.8 276.468 24.75C273.131 26.7 270.488 29.3867 268.538 32.81C266.631 36.19 265.678 40.0033 265.678 44.25C265.678 48.4967 266.631 52.3317 268.538 55.755C270.488 59.135 273.131 61.8 276.468 63.75C279.848 65.7 283.618 66.675 287.778 66.675ZM324.851 67V21.5H326.411L359.951 65.18V21.5H361.251V67H359.756L326.151 23.32V67H324.851ZM392.181 67.975C388.671 67.975 385.551 67.325 382.821 66.025C380.091 64.725 377.902 62.905 376.256 60.565C374.652 58.225 373.656 55.5167 373.266 52.44H374.501C374.934 55.3 375.909 57.8133 377.426 59.98C378.942 62.1033 380.957 63.75 383.471 64.92C385.984 66.09 388.887 66.675 392.181 66.675C396.904 66.675 400.566 65.7433 403.166 63.88C405.809 61.9733 407.131 59.3083 407.131 55.885C407.131 53.3717 406.416 51.3783 404.986 49.905C403.556 48.4317 401.757 47.37 399.591 46.72C397.424 46.0267 394.672 45.3983 391.336 44.835H391.271C387.761 44.2717 384.879 43.6433 382.626 42.95C380.372 42.2567 378.444 41.13 376.841 39.57C375.281 38.01 374.501 35.8433 374.501 33.07C374.501 30.5567 375.172 28.3467 376.516 26.44C377.859 24.5333 379.722 23.0817 382.106 22.085C384.532 21.045 387.327 20.525 390.491 20.525C393.784 20.525 396.687 21.1533 399.201 22.41C401.714 23.6233 403.729 25.3783 405.246 27.675C406.806 29.9717 407.737 32.68 408.041 35.8H406.741C406.221 31.4233 404.509 28 401.606 25.53C398.746 23.06 395.041 21.825 390.491 21.825C387.587 21.825 385.031 22.28 382.821 23.19C380.611 24.1 378.877 25.4217 377.621 27.155C376.407 28.845 375.801 30.8167 375.801 33.07C375.801 35.41 376.472 37.2517 377.816 38.595C379.159 39.9383 380.827 40.935 382.821 41.585C384.857 42.1917 387.479 42.7767 390.686 43.34C390.772 43.3833 390.881 43.405 391.011 43.405C391.141 43.405 391.249 43.4267 391.336 43.47C391.422 43.5133 391.509 43.535 391.596 43.535C391.682 43.535 391.769 43.5567 391.856 43.6C395.496 44.25 398.399 44.9433 400.566 45.68C402.776 46.3733 404.639 47.5433 406.156 49.19C407.672 50.7933 408.431 53.025 408.431 55.885C408.431 58.4417 407.781 60.63 406.481 62.45C405.181 64.2267 403.317 65.5917 400.891 66.545C398.464 67.4983 395.561 67.975 392.181 67.975ZM431.433 67V22.8H412.583V21.5H451.583V22.8H432.733V67H431.433ZM461.96 67V21.5H473.465C478.579 21.5 482.587 22.67 485.49 25.01C488.437 27.3067 489.91 30.47 489.91 34.5C489.91 38.01 488.784 40.8917 486.53 43.145C484.277 45.355 481.157 46.72 477.17 47.24L494.395 67H492.64L475.545 47.435C475.199 47.4783 474.852 47.5 474.505 47.5C474.159 47.5 473.812 47.5 473.465 47.5H463.26V67H461.96ZM473.465 46.2C478.232 46.2 481.937 45.16 484.58 43.08C487.267 41 488.61 38.14 488.61 34.5C488.61 30.86 487.267 28 484.58 25.92C481.937 23.84 478.232 22.8 473.465 22.8H463.26V46.2H473.465ZM522.357 67.975C518.587 67.975 515.272 67.1517 512.412 65.505C509.595 63.815 507.407 61.4533 505.847 58.42C504.287 55.3867 503.507 51.8333 503.507 47.76V21.5H504.807V47.76C504.807 51.5733 505.522 54.91 506.952 57.77C508.382 60.63 510.419 62.84 513.062 64.4C515.705 65.9167 518.804 66.675 522.357 66.675C525.91 66.675 529.009 65.9167 531.652 64.4C534.295 62.84 536.332 60.63 537.762 57.77C539.192 54.91 539.907 51.5733 539.907 47.76V21.5H541.207V47.76C541.207 51.8333 540.427 55.3867 538.867 58.42C537.307 61.4533 535.097 63.815 532.237 65.505C529.42 67.1517 526.127 67.975 522.357 67.975ZM558.127 67V21.5H559.427V43.6H568.657L587.897 21.5H589.587L569.762 44.25L589.587 67H587.832L568.592 44.9H559.427V67H558.127Z" fill="white"/>
</svg>
