<svg width="355" height="321" viewBox="0 0 355 321" fill="none" xmlns="http://www.w3.org/2000/svg">
<path d="M275.5 74L268.5 72.5L276 66H279L280.5 65L281.763 64.0526C283.563 62.7028 285.024 60.9524 286.03 58.9401L286.916 57.1675C287.301 56.3989 287.852 55.7262 288.53 55.1986L291.257 53.078C291.696 52.7367 292.308 52.7314 292.753 53.0649C293.39 53.5422 293.414 54.4885 292.803 54.9978L291.714 55.9054C291.255 56.2875 290.959 56.8294 290.885 57.4216L290.191 62.9744C290.064 63.9873 289.808 64.9797 289.429 65.9275C288.5 68.2503 286.835 70.2411 284.725 71.5843C283.271 72.5091 281.618 73.126 279.913 73.3696L275.5 74Z" fill="white"/>
<path d="M228 152.5V137H248V155.5H253.5V137H284.5L251 171.5L228 152.5Z" fill="white"/>
<path d="M290 131.5H279V113H288L298.5 123L290 131.5Z" fill="white"/>
<path d="M228 113H273.5V131.5H228V113Z" fill="white"/>
<path d="M283 107.5H253.5V89H298.5V101.5L283 107.5Z" fill="white"/>
<path d="M324.5 92.5L304.5 99.5V90L284.5 72L288.5 69L310.5 88.5H324L324.5 92.5Z" fill="white"/>
<path d="M287.5 0H266.5L257.5 12.5L267.5 37H285L295 12.5L287.5 0Z" fill="white"/>
<path d="M280.5 37H273V42.5L269.069 45.6451C268.358 46.2139 267.7 46.8462 267.104 47.5342L265.396 49.5044C262.895 52.3901 261.601 56.1279 261.783 59.9422C261.924 62.9123 262.954 65.7716 264.738 68.1504L265 68.5L272 62.5L271.101 61.1515C270.383 60.0746 270 58.8094 270 57.5151C270 55.6014 270.836 53.7832 272.289 52.5378L280.5 45.5V37Z" fill="white"/>
<path d="M227.5 88.5V107.5H248L248.5 89.5L276 66H279L282.5 63.5L276 59L242.5 88.5H227.5Z" fill="white"/>
<path d="M33 251.5H52V320.5H82V230.5L158 164L274.5 266.5V204L255 224L158 138.5L33 251.5Z" fill="white"/>
<path d="M147.5 320.5H110.5V245L147.5 214V320.5Z" fill="white"/>
<path d="M324 320V153.5L293.5 185V299L168.5 199V320H324Z" fill="white"/>
<path d="M0 251.5H21L157.5 127.5V105L82.5 173.5V147H52V203.5L0 251.5Z" fill="white"/>
<path d="M251.5 183.5L157.5 105V127L255 211.5L328 137L342.5 151L354.5 92.5L299 111L311.5 123L251.5 183.5Z" fill="white"/>
</svg>
